<svg width="1731" height="1309" viewBox="0 0 1731 1309" fill="none" xmlns="http://www.w3.org/2000/svg">
<mask id="mask0_1_163" style="mask-type:alpha" maskUnits="userSpaceOnUse" x="0" y="0" width="1731" height="1309">
<path d="M0 162.581L1731 0V1309H0L0 162.581Z" fill="#171717"/>
</mask>
<g mask="url(#mask0_1_163)">
<path d="M280 56.0811V52.0847H280.5V52.0876H281V56.0841H280.5V56.0811H280ZM280.5 60.0806H281V64.077H280.5V64.0741H280V60.0776H280.5V60.0806ZM280.5 68.0735H281V72.07H280.5V72.067H280V68.0706H280.5V68.0735ZM280.5 76.0664H281V80.0629H280.5V80.06H280V76.0635H280.5V76.0664ZM280.5 84.0593H281V88.0558H280.5V88.0529H280V84.0564H280.5V84.0593ZM280.5 92.0522H281V96.0487H280.5V96.0459H280V92.0494H280.5V92.0522ZM280.5 100.045H281V104.042H280.5V104.039H280V100.042H280.5V100.045ZM280.5 108.038H281V112.035H280.5V112.032H280V108.035H280.5V108.038ZM280.5 116.031H281V120.027H280.5V120.025H280V116.028H280.5V116.031ZM280.5 124.024H281V128.02H280.5V128.018H280V124.021H280.5V124.024ZM280.5 132.017H281V136.013H280.5V136.011H280V132.014H280.5V132.017ZM280.5 140.01H281V144.006H280.5V144.004H280V140.007H280.5V140.01ZM280.5 148.003H281V151.999H280.5V151.996H280V148H280.5V148.003ZM280.5 155.996H281V159.992H280.5V159.989H280V155.993H280.5V155.996ZM280.5 163.989H281V167.985H280.5V167.982H280V163.986H280.5V163.989ZM280.5 171.981H281V175.978H280.5V175.975H280V171.979H280.5V171.981ZM280.5 179.974H281V183.971H280.5V183.968H280V179.972H280.5V179.974ZM280.5 187.967H281V191.964H280.5V191.961H280V187.965H280.5V187.967ZM280.5 195.96H281V199.957H280.5V199.954H280V195.958H280.5V195.96ZM280.5 203.953H281V207.95H280.5V207.947H280V203.951H280.5V203.953ZM280.5 211.946H281V215.943H280.5V215.94H280V211.944H280.5V211.946ZM280.5 219.939H281V223.935H280.5V223.933H280V219.937H280.5V219.939ZM280.5 227.932H281V231.928H280.5V231.926H280V227.93H280.5V227.932ZM280.5 235.925H281V239.921H280.5V239.919H280V235.922H280.5V235.925ZM280.5 243.918H281V247.914H280.5V247.912H280V243.915H280.5V243.918ZM280.5 251.911H281V255.907H280.5V255.905H280V251.908H280.5V251.911ZM280.5 259.904H281V263.9H280.5V263.898H280V259.901H280.5V259.904ZM280.5 267.896H281V271.893H280.5V271.891H280V267.894H280.5V267.896ZM280.5 275.889H281V279.886H280.5V279.884H280V275.887H280.5V275.889ZM280.5 283.882H281V287.879H280.5V287.877H280V283.88H280.5V283.882ZM280.5 291.875H281V295.872H280.5V295.87H280V291.873H280.5V291.875ZM280.5 299.868H281V303.865H280.5V303.863H280V299.866H280.5V299.868ZM280.5 307.861H281V311.858H280.5V311.855H280V307.859H280.5V307.861ZM280.5 315.854H281V319.85H280.5V319.848H280V315.852H280.5V315.854ZM280.5 323.847H281V327.843H280.5V327.841H280V323.845H280.5V323.847ZM280.5 331.84H281V335.836H280.5V335.834H280V331.838H280.5V331.84ZM280.5 339.833H281V343.829H280.5V343.827H280V339.831H280.5V339.833ZM280.5 347.826H281V351.822H280.5V351.82H280V347.824H280.5V347.826ZM280.5 355.819H281V359.815H280.5V359.813H280V355.817H280.5V355.819ZM280.5 363.811H281V367.808H280.5V367.806H280V363.809H280.5V363.811ZM280.5 371.804H281V375.801H280.5V375.799H280V371.802H280.5V371.804ZM280.5 379.797H281V383.794H280.5V383.792H280V379.795H280.5V379.797ZM280.5 387.79H281V391.787H280.5V391.785H280V387.788H280.5V387.79ZM280.5 395.783H281V399.78H280.5V399.778H280V395.781H280.5V395.783ZM280.5 403.776H281V407.773H280.5V407.771H280V403.774H280.5V403.776ZM280.5 411.769H281V415.765H280.5V415.763H280V411.767H280.5V411.769ZM280.5 419.762H281V423.758H280.5V423.756H280V419.76H280.5V419.762ZM280.5 427.755H281V431.751H280.5V431.749H280V427.753H280.5V427.755ZM280.5 435.748H281V439.744H280.5V439.742H280V435.746H280.5V435.748ZM280.5 443.741H281V447.737H280.5V447.735H280V443.739H280.5V443.741ZM280.5 451.734H281V455.73H280.5V455.728H280V451.732H280.5V451.734ZM280.5 459.727H281V463.723H280.5V463.721H280V459.724H280.5V459.727ZM280.5 467.719H281V471.716H280.5V471.714H280V467.717H280.5V467.719ZM280.5 475.712H281V479.709H280.5V479.707H280V475.71H280.5V475.712ZM280.5 483.705H281V487.702H280.5V487.7H280V483.703H280.5V483.705ZM280.5 491.698H281V495.695H280.5V495.693H280V491.696H280.5V491.698ZM280.5 499.691H281V503.688H280.5V503.686H280V499.689H280.5V499.691ZM280.5 507.684H281V511.681H280.5V511.678H280V507.682H280.5V507.684ZM280.5 515.677H281V519.673H280.5V519.671H280V515.675H280.5V515.677ZM280.5 523.67H281V527.666H280.5V527.664H280V523.668H280.5V523.67ZM280.5 531.663H281V535.659H280.5V535.657H280V531.661H280.5V531.663ZM280.5 539.656H281V543.652H280.5V543.65H280V539.654H280.5V539.656ZM280.5 547.649H281V551.645H280.5V551.643H280V547.647H280.5V547.649ZM280.5 555.642H281V559.638H280.5V559.636H280V555.64H280.5V555.642ZM280.5 563.635H281V567.631H280.5V567.629H280V563.632H280.5V563.635ZM280.5 571.627H281V575.624H280.5V575.622H280V571.625H280.5V571.627ZM280.5 579.62H281V583.617H280.5V583.615H280V579.618H280.5V579.62ZM280.5 587.613H281V591.61H280.5V591.608H280V587.611H280.5V587.613ZM280.5 595.606H281V599.603H280.5V599.601H280V595.604H280.5V595.606ZM280.5 603.599H281V607.596H280.5V607.594H280V603.597H280.5V603.599ZM280.5 611.592H281V615.589H280.5V615.586H280V611.59H280.5V611.592ZM280.5 619.585H281V623.581H280.5V623.579H280V619.583H280.5V619.585ZM280.5 627.578H281V631.574H280.5V631.572H280V627.576H280.5V627.578ZM280.5 635.571H281V639.567H280.5V639.565H280V635.569H280.5V635.571ZM280.5 643.564H281V647.56H280.5V647.558H280V643.562H280.5V643.564ZM280.5 651.557H281V655.553H280.5V655.551H280V651.555H280.5V651.557ZM280.5 659.55H281V663.546H280.5V663.544H280V659.547H280.5V659.55ZM280.5 667.542H281V671.539H280.5V671.537H280V667.54H280.5V667.542ZM280.5 675.535H281V679.532H280.5V679.53H280V675.533H280.5V675.535ZM280.5 683.528H281V687.525H280.5V687.523H280V683.526H280.5V683.528ZM280.5 691.521H281V695.518H280.5V695.516H280V691.519H280.5V691.521ZM280.5 699.514H281V703.511H280.5V703.509H280V699.512H280.5V699.514ZM280.5 707.507H281V711.504H280.5V711.501H280V707.505H280.5V707.507ZM280.5 715.5H281V719.496H280.5V719.494H280V715.498H280.5V715.5ZM280.5 723.493H281V727.489H280.5V727.487H280V723.491H280.5V723.493ZM280.5 731.486H281V735.482H280.5V735.48H280V731.484H280.5V731.486ZM280.5 739.479H281V743.475H280.5V743.473H280V739.477H280.5V739.479ZM280.5 747.472H281V751.468H280.5V751.466H280V747.47H280.5V747.472ZM280.5 755.465H281V759.461H280.5V759.459H280V755.463H280.5V755.465ZM280.5 763.458H281V767.454H280.5V767.452H280V763.455H280.5V763.458ZM280.5 771.45H281V775.447H280.5V775.445H280V771.448H280.5V771.45ZM280.5 779.443H281V783.44H280.5V783.438H280V779.441H280.5V779.443ZM280.5 787.436H281V791.433H280.5V791.431H280V787.434H280.5V787.436ZM280.5 795.429H281V799.426H280.5V799.424H280V795.427H280.5V795.429ZM280.5 803.422H281V807.419H280.5V807.417H280V803.42H280.5V803.422ZM280.5 811.415H281V815.411H280.5V815.409H280V811.413H280.5V811.415ZM280.5 819.408H281V823.404H280.5V823.402H280V819.406H280.5V819.408ZM280.5 827.401H281V831.397H280.5V831.395H280V827.399H280.5V827.401ZM280.5 835.394H281V839.39H280.5V839.388H280V835.392H280.5V835.394ZM280.5 843.387H281V847.383H280.5V847.381H280V843.385H280.5V843.387ZM280.5 851.38H281V855.376H280.5V855.374H280V851.378H280.5V851.38ZM280.5 859.373H281V863.369H280.5V863.367H280V859.37H280.5V859.373ZM280.5 867.365H281V871.362H280.5V871.36H280V867.363H280.5V867.365ZM280.5 875.358H281V879.355H280.5V879.353H280V875.356H280.5V875.358ZM280.5 883.351H281V887.348H280.5V887.346H280V883.349H280.5V883.351ZM280.5 891.344H281V895.341H280.5V895.339H280V891.342H280.5V891.344ZM280.5 899.337H281V903.334H280.5V903.332H280V899.335H280.5V899.337ZM280.5 907.33H281V911.327H280.5V911.324H280V907.328H280.5V907.33ZM280.5 915.323H281V919.319H280.5V919.317H280V915.321H280.5V915.323ZM280.5 923.316H281V927.312H280.5V927.31H280V923.314H280.5V923.316ZM280.5 931.309H281V935.305H280.5V935.303H280V931.307H280.5V931.309ZM280.5 939.302H281V943.298H280.5V943.296H280V939.3H280.5V939.302ZM280.5 947.295H281V951.291H280.5V951.289H280V947.293H280.5V947.295ZM280.5 955.288H281V959.284H280.5V959.282H280V955.286H280.5V955.288ZM280.5 963.281H281V967.277H280.5V967.275H280V963.278H280.5V963.281ZM280.5 971.273H281V975.27H280.5V975.268H280V971.271H280.5V971.273ZM280.5 979.266H281V983.263H280.5V983.261H280V979.264H280.5V979.266ZM280.5 987.259H281V991.256H280.5V991.254H280V987.257H280.5V987.259ZM280.5 995.252H281V999.249H280.5V999.247H280V995.25H280.5V995.252ZM280.5 1003.25H281V1007.24H280.5V1007.24H280V1003.24H280.5V1003.25ZM280.5 1011.24H281V1015.23H280.5V1015.23H280V1011.24H280.5V1011.24ZM280.5 1019.23H281V1023.23H280.5V1023.23H280V1019.23H280.5V1019.23ZM280.5 1027.22H281V1031.22H280.5V1031.22H280V1027.22H280.5V1027.22ZM280.5 1035.22H281V1039.21H280.5V1039.21H280V1035.21H280.5V1035.22ZM280.5 1043.21H281V1047.21H280.5V1047.2H280V1043.21H280.5V1043.21ZM280.5 1051.2H281V1055.2H280.5V1055.2H280V1051.2H280.5V1051.2ZM280.5 1059.2H281V1063.19H280.5V1063.19H280V1059.19H280.5V1059.2ZM280.5 1067.19H281V1071.19H280.5V1071.18H280V1067.19H280.5V1067.19ZM280.5 1075.18H281V1079.18H280.5V1079.18H280V1075.18H280.5V1075.18ZM280.5 1083.17H281V1087.17H280.5V1087.17H280V1083.17H280.5V1083.17ZM280.5 1091.17H281V1095.16H280.5V1095.16H280V1091.17H280.5V1091.17ZM280.5 1099.16H281V1103.16H280.5V1103.15H280V1099.16H280.5V1099.16ZM280.5 1107.15H281V1111.15H280.5V1111.15H280V1107.15H280.5V1107.15ZM280.5 1115.15H281V1119.14H280.5V1119.14H280V1115.14H280.5V1115.15ZM280.5 1123.14H281V1127.14H280.5V1127.13H280V1123.14H280.5V1123.14ZM280.5 1131.13H281V1135.13H280.5V1135.13H280V1131.13H280.5V1131.13ZM280.5 1139.13H281V1143.12H280.5V1143.12H280V1139.12H280.5V1139.13ZM280.5 1147.12H281V1151.11H280.5V1151.11H280V1147.12H280.5V1147.12ZM280.5 1155.11H281V1159.11H280.5V1159.1H280V1155.11H280.5V1155.11ZM280.5 1163.1H281V1167.1H280.5V1167.1H280V1163.1H280.5V1163.1ZM280.5 1171.1H281V1175.09H280.5V1175.09H280V1171.09H280.5V1171.1ZM280.5 1179.09H281V1183.09H280.5V1183.08H280V1179.09H280.5V1179.09ZM280.5 1187.08H281V1191.08H280.5V1191.08H280V1187.08H280.5V1187.08ZM280.5 1195.08H281V1199.07H280.5V1199.07H280V1195.07H280.5V1195.08ZM280.5 1203.07H281V1207.07H280.5V1207.06H280V1203.07H280.5V1203.07ZM280.5 1211.06H281V1215.06H280.5V1215.06H280V1211.06H280.5V1211.06ZM280.5 1219.05H281V1223.05H280.5V1223.05H280V1219.05H280.5V1219.05ZM280.5 1227.05H281V1231.04H280.5V1231.04H280V1227.04H280.5V1227.05ZM280.5 1235.04H281V1239.04H280.5V1239.03H280V1235.04H280.5V1235.04ZM280.5 1243.03H281V1247.03H280.5V1247.03H280V1243.03H280.5V1243.03ZM280.5 1251.03H281V1255.02H280.5V1255.02H280V1251.02H280.5V1251.03ZM280.5 1259.02H281V1263.02H280.5V1263.01H280V1259.02H280.5V1259.02ZM280.5 1267.01H281V1271.01H280.5V1271.01H280V1267.01H280.5V1267.01ZM280.5 1275.01H281V1279H280.5V1279H280V1275H280.5V1275.01Z" stroke="#2A282E" stroke-dasharray="4 4"/>
<path d="M1066 1205.7L1062 1206.09L1061.95 1205.59L1057.95 1205.99L1058 1206.49L1054 1206.88L1053.95 1206.38L1049.95 1206.78L1050 1207.28L1046 1207.67L1045.95 1207.17L1041.95 1207.57L1042 1208.07L1038 1208.46L1037.95 1207.96L1033.95 1208.36L1034 1208.86L1030 1209.25L1029.95 1208.75L1025.95 1209.15L1026 1209.65L1022 1210.04L1021.95 1209.54L1017.95 1209.94L1018 1210.44L1014 1210.83L1013.95 1210.33L1009.95 1210.73L1010 1211.23L1006 1211.62L1005.95 1211.12L1001.95 1211.52L1002 1212.02L998 1212.41L997.951 1211.91L993.951 1212.31L994 1212.81L990 1213.2L989.951 1212.7L985.951 1213.1L986 1213.6L982 1213.99L981.951 1213.49L977.951 1213.89L978 1214.39L974 1214.78L973.951 1214.28L969.951 1214.68L970 1215.18L966 1215.57L965.951 1215.07L961.951 1215.47L962 1215.97L958 1216.36L957.951 1215.86L953.951 1216.26L954 1216.76L950 1217.15L949.951 1216.65L945.951 1217.05L946 1217.55L942 1217.94L941.951 1217.44L937.951 1217.84L938 1218.34L934 1218.73L933.951 1218.23L929.951 1218.63L930 1219.13L926 1219.52L925.951 1219.02L921.951 1219.42L922 1219.92L918 1220.31L917.951 1219.81L913.951 1220.21L914 1220.71L910 1221.1L909.951 1220.6L905.951 1221L906 1221.5L902 1221.89L901.951 1221.39L897.951 1221.79L898 1222.29L894 1222.68L893.951 1222.18L889.951 1222.58L890 1223.08L886 1223.47L885.951 1222.97L881.951 1223.37L882 1223.87L878 1224.26L877.951 1223.76L873.951 1224.16L874 1224.66L870 1225.05L869.951 1224.55L865.951 1224.95L866 1225.45L862 1225.84L861.951 1225.34L857.951 1225.74L858 1226.24L854 1226.63L853.951 1226.13L849.951 1226.53L850 1227.03L846 1227.42L845.951 1226.92L841.951 1227.32L842 1227.82L838 1228.21L837.951 1227.71L833.951 1228.11L834 1228.61L830 1229L829.951 1228.5L825.951 1228.9L826 1229.4L822 1229.79L821.951 1229.29L817.951 1229.69L818 1230.19L814 1230.58L813.951 1230.08L809.951 1230.48L810 1230.98L806 1231.37L805.951 1230.87L801.951 1231.27L802 1231.77L798 1232.16L797.951 1231.66L793.951 1232.06L794 1232.56L790 1232.95L789.951 1232.45L785.951 1232.85L786 1233.35L782 1233.74L781.951 1233.24L777.951 1233.64L778 1234.14L774 1234.53L773.951 1234.03L769.951 1234.43L770 1234.93L766 1235.32L765.951 1234.82L761.951 1235.22L762 1235.72L758 1236.11L757.951 1235.61L753.951 1236.01L754 1236.51L750 1236.9L749.951 1236.4L745.951 1236.8L746 1237.3L742 1237.69L741.951 1237.19L737.951 1237.59L738 1238.09L734 1238.48L733.951 1237.98L729.951 1238.38L730 1238.88L726 1239.27L725.951 1238.77L721.951 1239.17L722 1239.67L718 1240.06L717.951 1239.56L713.951 1239.96L714 1240.46L710 1240.85L709.951 1240.35L705.951 1240.75L706 1241.25L702 1241.64L701.951 1241.14L697.951 1241.54L698 1242.04L694 1242.43L693.951 1241.93L689.951 1242.33L690 1242.83L686 1243.22L685.951 1242.72L681.951 1243.12L682 1243.62L678 1244.01L677.951 1243.51L673.951 1243.91L674 1244.41L670 1244.8L669.951 1244.3L668.5 1244.45V1242.99H668V1238.98H668.5V1234.97H668V1230.96H668.5V1226.95H668V1222.94H668.5V1218.93H668V1214.92H668.5V1210.91H668V1206.9H668.5V1202.9H668V1198.89H668.5V1194.88H668V1190.87H668.5V1186.86H668V1182.85H668.5V1178.84H668V1174.83H668.5V1170.82H668V1166.81H668.5V1162.8H668V1158.79H668.5V1154.78H668V1150.77H668.5V1146.76H668V1142.75H668.5V1138.74H668V1134.73H668.5V1130.72H668V1126.71H668.5V1122.7H668V1118.69H668.5V1114.68H668V1110.67H668.5V1106.66H668V1102.65H668.5V1098.64H668V1094.63H668.5V1090.62H668V1086.61H668.5V1082.6H668V1078.59H668.5V1074.58H668V1070.57H668.5V1066.56H668V1062.55H668.5V1058.54H668V1054.53H668.5V1050.52H668V1046.51H668.5V1042.5H668V1038.49H668.5V1034.48H668V1030.48H668.5V1026.47H668V1022.46H668.5V1018.45H668V1014.44H668.5V1010.43H668V1006.42H668.5V1002.41H668V998.397H668.5V994.387H668V990.377H668.5V986.368H668V982.358H668.5V978.348H668V974.338H668.5V970.329H668V966.319H668.5V962.309H668V958.299H668.5V954.289H668V950.28H668.5V946.27H668V942.26H668.5V938.25H668V934.241H668.5V930.231H668V926.221H668.5V922.211H668V918.202H668.5V914.192H668V910.182H668.5V906.172H668V902.163H668.5V898.153H668V894.143H668.5V890.133H668V886.124H668.5V882.114H668V878.104H668.5V874.094H668V870.084H668.5V866.075H668V862.065H668.5V858.055H668V854.045H668.5V850.036H668V846.026H668.5V842.016H668V838.006H668.5V833.997H668V829.987H668.5V825.977H668V821.967H668.5V817.957H668V813.948H668.5V809.938H668V805.928H668.5V801.918H668V797.909H668.5V793.899H668V789.889H668.5V785.879H668V781.87H668.5V777.86H668V773.85H668.5V769.84H668V765.831H668.5V761.821H668V757.811H668.5V753.801H668V749.791H668.5V745.782H668V741.772H668.5V737.762H668V733.752H668.5V729.743H668V725.733H668.5V721.723H668V717.713H668.5V713.704H668V709.694H668.5V705.684H668V701.674H668.5V697.664H668V693.655H668.5V689.645H668V685.635H668.5V681.625H668V677.616H668.5V673.606H668V669.596H668.5V665.586H668V661.577H668.5V657.567H668V653.557H668.5V649.547H668V645.538H668.5V641.528H668V637.518H668.5V633.508H668V629.498H668.5V625.489H668V621.479H668.5V617.469H668V613.459H668.5V609.45H668V605.44H668.5V601.43H668V597.42H668.5V593.411H668V589.401H668.5V585.391H668V581.381H668.5V577.372H668V573.362H668.5V569.352H668V565.342H668.5V561.332H668V557.323H668.5V553.313H668V549.303H668.5V545.293H668V541.284H668.5V537.274H668V533.264H668.5V529.254H668V525.245H668.5V521.235H668V517.225H668.5V513.215H668V509.205H668.5V505.196H668V501.186H668.5V497.176H668V493.166H668.5V489.157H668V485.147H668.5V481.137H668V477.127H668.5V473.118H668V469.108H668.5V465.098H668V461.088H668.5V457.079H668V453.069H668.5V449.059H668V445.049H668.5V441.039H668V437.03H668.5V433.02H668V429.01H668.5V425H668V420.991H668.5V416.981H668V412.971H668.5V408.961H668V404.952H668.5V400.942H668V396.932H668.5V392.922H668V388.913H668.5V384.903H668V380.893H668.5V376.883H668V372.873H668.5V368.864H668V364.854H668.5V360.844H668V356.834H668.5V352.825H668V348.815H668.5V344.805H668V340.795H668.5V336.786H668V332.776H668.5V328.766H668V324.756H668.5V320.747H668V316.737H668.5V312.727H668V308.717H668.5V304.707H668V300.698H668.5V296.688H668V292.678H668.5V288.668H668V284.659H668.5V280.649H668V276.639H668.5V272.629H668V268.619H668.5V264.61H668V260.6H668.5V256.59H668V252.58H668.5V248.571H668V244.561H668.5V240.551H668V236.541H668.5V232.531H668V228.522H668.5V224.512H668V220.502H668.5V216.492H668V212.482H668.5V208.473H668V204.463H668.5V200.453H668V196.443H668.5V192.434H668V188.424H668.5V184.414H668V180.404H668.5V176.394H668V172.385H668.5V168.375H668V164.365H668.5V160.355H668V156.346H668.5V152.336H668V148.326H668.5V144.316H668V140.306H668.5V136.297H668V132.287H668.5V128.277H668V124.267H668.5V120.258H668V116.248H668.5V112.238H668V108.228H668.5V104.218H668V100.209H668.5V96.1989H668V92.1891H668.5V88.1793H668V84.1695H668.5V80.1598H668V76.15H668.5V72.1402H668V68.1304H668.5V64.1206H668V60.1109H668.5V56.1011H668V52.0913H668.5V50.5864H670V50.0864H674V50.5864H678V50.0864H682V50.5864H686V50.0864H690V50.5864H694V50.0864H698V50.5864H702V50.0864H706V50.5864H710V50.0864H714V50.5864H718V50.0864H722V50.5864H726V50.0864H730V50.5864H734V50.0864H738V50.5864H742V50.0864H746V50.5864H750V50.0864H754V50.5864H758V50.0864H762V50.5864H766V50.0864H770V50.5864H774V50.0864H778V50.5864H782V50.0864H786V50.5864H790V50.0864H794V50.5864H798V50.0864H802V50.5864H806V50.0864H810V50.5864H814V50.0864H818V50.5864H822V50.0864H826V50.5864H830V50.0864H834V50.5864H838V50.0864H842V50.5864H846V50.0864H850V50.5864H854V50.0864H858V50.5864H862V50.0864H866V50.5864H870V50.0864H874V50.5864H878V50.0864H882V50.5864H886V50.0864H890V50.5864H894V50.0864H898V50.5864H902V50.0864H906V50.5864H910V50.0864H914V50.5864H918V50.0864H922V50.5864H926V50.0864H930V50.5864H934V50.0864H938V50.5864H942V50.0864H946V50.5864H950V50.0864H954V50.5864H958V50.0864H962V50.5864H966V50.0864H970V50.5864H974V50.0864H978V50.5864H982V50.0864H986V50.5864H990V50.0864H994V50.5864H998V50.0864H1002V50.5864H1006V50.0864H1010V50.5864H1014V50.0864H1018V50.5864H1022V50.0864H1026V50.5864H1030V50.0864H1034V50.5864H1038V50.0864H1042V50.5864H1046V50.0864H1050V50.5864H1054V50.0864H1058V50.5864H1062V50.0864H1066V50.5864H1067.5V52.0948H1068V56.1067H1067.5V60.1185H1068V64.1304H1067.5V68.1422H1068V72.1541H1067.5V76.1659H1068V80.1778H1067.5V84.1896H1068V88.2014H1067.5V92.2133H1068V96.2251H1067.5V100.237H1068V104.249H1067.5V108.261H1068V112.272H1067.5V116.284H1068V120.296H1067.5V124.308H1068V128.32H1067.5V132.332H1068V136.343H1067.5V140.355H1068V144.367H1067.5V148.379H1068V152.391H1067.5V156.403H1068V160.415H1067.5V164.426H1068V168.438H1067.5V172.45H1068V176.462H1067.5V180.474H1068V184.486H1067.5V188.497H1068V192.509H1067.5V196.521H1068V200.533H1067.5V204.545H1068V208.557H1067.5V212.568H1068V216.58H1067.5V220.592H1068V224.604H1067.5V228.616H1068V232.628H1067.5V236.64H1068V240.651H1067.5V244.663H1068V248.675H1067.5V252.687H1068V256.699H1067.5V260.711H1068V264.722H1067.5V268.734H1068V272.746H1067.5V276.758H1068V280.77H1067.5V284.782H1068V288.793H1067.5V292.805H1068V296.817H1067.5V300.829H1068V304.841H1067.5V308.853H1068V312.865H1067.5V316.876H1068V320.888H1067.5V324.9H1068V328.912H1067.5V332.924H1068V336.936H1067.5V340.947H1068V344.959H1067.5V348.971H1068V352.983H1067.5V356.995H1068V361.007H1067.5V365.018H1068V369.03H1067.5V373.042H1068V377.054H1067.5V381.066H1068V385.078H1067.5V389.09H1068V393.101H1067.5V397.113H1068V401.125H1067.5V405.137H1068V409.149H1067.5V413.161H1068V417.172H1067.5V421.184H1068V425.196H1067.5V429.208H1068V433.22H1067.5V437.232H1068V441.243H1067.5V445.255H1068V449.267H1067.5V453.279H1068V457.291H1067.5V461.303H1068V465.314H1067.5V469.326H1068V473.338H1067.5V477.35H1068V481.362H1067.5V485.374H1068V489.385H1067.5V493.397H1068V497.409H1067.5V501.421H1068V505.433H1067.5V509.445H1068V513.457H1067.5V517.468H1068V521.48H1067.5V525.492H1068V529.504H1067.5V533.516H1068V537.528H1067.5V541.539H1068V545.551H1067.5V549.563H1068V553.575H1067.5V557.587H1068V561.599H1067.5V565.61H1068V569.622H1067.5V573.634H1068V577.646H1067.5V581.658H1068V585.67H1067.5V589.682H1068V593.693H1067.5V597.705H1068V601.717H1067.5V605.729H1068V609.741H1067.5V613.753H1068V617.764H1067.5V621.776H1068V625.788H1067.5V629.8H1068V633.812H1067.5V637.824H1068V641.835H1067.5V645.847H1068V649.859H1067.5V653.871H1068V657.883H1067.5V661.895H1068V665.906H1067.5V669.918H1068V673.93H1067.5V677.942H1068V681.954H1067.5V685.966H1068V689.978H1067.5V693.989H1068V698.001H1067.5V702.013H1068V706.025H1067.5V710.037H1068V714.049H1067.5V718.06H1068V722.072H1067.5V726.084H1068V730.096H1067.5V734.108H1068V738.12H1067.5V742.131H1068V746.143H1067.5V750.155H1068V754.167H1067.5V758.179H1068V762.191H1067.5V766.203H1068V770.214H1067.5V774.226H1068V778.238H1067.5V782.25H1068V786.262H1067.5V790.274H1068V794.285H1067.5V798.297H1068V802.309H1067.5V806.321H1068V810.333H1067.5V814.345H1068V818.356H1067.5V822.368H1068V826.38H1067.5V830.392H1068V834.404H1067.5V838.416H1068V842.427H1067.5V846.439H1068V850.451H1067.5V854.463H1068V858.475H1067.5V862.487H1068V866.499H1067.5V870.51H1068V874.522H1067.5V878.534H1068V882.546H1067.5V886.558H1068V890.57H1067.5V894.581H1068V898.593H1067.5V902.605H1068V906.617H1067.5V910.629H1068V914.641H1067.5V918.652H1068V922.664H1067.5V926.676H1068V930.688H1067.5V934.7H1068V938.712H1067.5V942.724H1068V946.735H1067.5V950.747H1068V954.759H1067.5V958.771H1068V962.783H1067.5V966.795H1068V970.806H1067.5V974.818H1068V978.83H1067.5V982.842H1068V986.854H1067.5V990.866H1068V994.878H1067.5V998.889H1068V1002.9H1067.5V1006.91H1068V1010.93H1067.5V1014.94H1068V1018.95H1067.5V1022.96H1068V1026.97H1067.5V1030.98H1068V1035H1067.5V1039.01H1068V1043.02H1067.5V1047.03H1068V1051.04H1067.5V1055.06H1068V1059.07H1067.5V1063.08H1068V1067.09H1067.5V1071.1H1068V1075.11H1067.5V1079.13H1068V1083.14H1067.5V1087.15H1068V1091.16H1067.5V1095.17H1068V1099.19H1067.5V1103.2H1068V1107.21H1067.5V1111.22H1068V1115.23H1067.5V1119.25H1068V1123.26H1067.5V1127.27H1068V1131.28H1067.5V1135.29H1068V1139.3H1067.5V1143.32H1068V1147.33H1067.5V1151.34H1068V1155.35H1067.5V1159.36H1068V1163.38H1067.5V1167.39H1068V1171.4H1067.5V1175.41H1068V1179.42H1067.5V1183.43H1068V1187.45H1067.5V1191.46H1068V1195.47H1067.5V1199.48H1068V1203.49H1067.5V1205.05L1065.95 1205.2L1066 1205.7Z" stroke="#2A282E" stroke-dasharray="4 4"/>
<path d="M1266 1189.69L1262 1190.06L1261.95 1189.56L1257.95 1189.94L1258 1190.44L1254 1190.81L1253.95 1190.31L1249.95 1190.69L1250 1191.19L1246 1191.56L1245.95 1191.06L1241.95 1191.44L1242 1191.94L1238 1192.31L1237.95 1191.81L1233.95 1192.19L1234 1192.69L1230 1193.06L1229.95 1192.56L1225.95 1192.94L1226 1193.44L1222 1193.81L1221.95 1193.31L1217.95 1193.69L1218 1194.19L1214 1194.56L1213.95 1194.06L1209.95 1194.44L1210 1194.94L1206 1195.31L1205.95 1194.81L1201.95 1195.19L1202 1195.69L1198 1196.06L1197.95 1195.56L1193.95 1195.94L1194 1196.44L1190 1196.81L1189.95 1196.31L1185.95 1196.69L1186 1197.19L1182 1197.56L1181.95 1197.06L1177.95 1197.44L1178 1197.94L1174 1198.31L1173.95 1197.81L1169.95 1198.19L1170 1198.69L1166 1199.06L1165.95 1198.56L1161.95 1198.94L1162 1199.44L1158 1199.81L1157.95 1199.31L1153.95 1199.69L1154 1200.19L1150 1200.56L1149.95 1200.06L1145.95 1200.44L1146 1200.94L1142 1201.31L1141.95 1200.81L1137.95 1201.19L1138 1201.69L1134 1202.06L1133.95 1201.56L1129.95 1201.94L1130 1202.44L1126 1202.81L1125.95 1202.31L1121.95 1202.69L1122 1203.19L1118 1203.56L1117.95 1203.06L1113.95 1203.44L1114 1203.94L1110 1204.31L1109.95 1203.81L1105.95 1204.19L1106 1204.69L1102 1205.06L1101.95 1204.56L1097.95 1204.94L1098 1205.44L1094 1205.81L1093.95 1205.31L1089.95 1205.69L1090 1206.19L1086 1206.56L1085.95 1206.06L1081.95 1206.44L1082 1206.94L1078 1207.31L1077.95 1206.81L1073.95 1207.19L1074 1207.69L1070 1208.06L1069.95 1207.56L1065.95 1207.94L1066 1208.44L1062 1208.81L1061.95 1208.31L1057.95 1208.69L1058 1209.19L1054 1209.56L1053.95 1209.06L1049.95 1209.44L1050 1209.94L1046 1210.31L1045.95 1209.81L1041.95 1210.19L1042 1210.69L1038 1211.06L1037.95 1210.56L1033.95 1210.94L1034 1211.44L1030 1211.81L1029.95 1211.31L1025.95 1211.69L1026 1212.19L1022 1212.56L1021.95 1212.06L1017.95 1212.44L1018 1212.94L1014 1213.31L1013.95 1212.81L1009.95 1213.19L1010 1213.69L1006 1214.06L1005.95 1213.56L1001.95 1213.94L1002 1214.44L998 1214.81L997.953 1214.31L993.953 1214.69L994 1215.19L990 1215.56L989.953 1215.06L985.953 1215.44L986 1215.94L982 1216.31L981.953 1215.81L977.953 1216.19L978 1216.69L974 1217.06L973.953 1216.56L969.953 1216.94L970 1217.44L966 1217.81L965.953 1217.31L961.953 1217.69L962 1218.19L958 1218.56L957.953 1218.06L953.953 1218.44L954 1218.94L950 1219.31L949.953 1218.81L945.953 1219.19L946 1219.69L942 1220.06L941.953 1219.56L937.953 1219.94L938 1220.44L934 1220.81L933.953 1220.31L929.953 1220.69L930 1221.19L926 1221.56L925.953 1221.06L921.953 1221.44L922 1221.94L918 1222.31L917.953 1221.81L913.953 1222.19L914 1222.69L910 1223.06L909.953 1222.56L905.953 1222.94L906 1223.44L902 1223.81L901.953 1223.31L897.953 1223.69L898 1224.19L894 1224.56L893.953 1224.06L889.953 1224.44L890 1224.94L886 1225.31L885.953 1224.81L881.953 1225.19L882 1225.69L878 1226.06L877.953 1225.56L873.953 1225.94L874 1226.44L870 1226.81L869.953 1226.31L868.5 1226.45V1225H868V1220.99H868.5V1216.99H868V1212.99H868.5V1208.99H868V1204.98H868.5V1200.98H868V1196.98H868.5V1192.97H868V1188.97H868.5V1184.97H868V1180.96H868.5V1176.96H868V1172.96H868.5V1168.95H868V1164.95H868.5V1160.95H868V1156.95H868.5V1152.94H868V1148.94H868.5V1144.94H868V1140.93H868.5V1136.93H868V1132.93H868.5V1128.92H868V1124.92H868.5V1120.92H868V1116.92H868.5V1112.91H868V1108.91H868.5V1104.91H868V1100.9H868.5V1096.9H868V1092.9H868.5V1088.89H868V1084.89H868.5V1080.89H868V1076.88H868.5V1072.88H868V1068.88H868.5V1064.88H868V1060.87H868.5V1056.87H868V1052.87H868.5V1048.86H868V1044.86H868.5V1040.86H868V1036.85H868.5V1032.85H868V1028.85H868.5V1024.84H868V1020.84H868.5V1016.84H868V1012.83H868.5V1008.83H868V1004.83H868.5V1000.83H868V996.822H868.5V992.819H868V988.816H868.5V984.813H868V980.81H868.5V976.807H868V972.804H868.5V968.801H868V964.797H868.5V960.794H868V956.791H868.5V952.788H868V948.785H868.5V944.782H868V940.779H868.5V936.776H868V932.773H868.5V928.769H868V924.766H868.5V920.763H868V916.76H868.5V912.757H868V908.754H868.5V904.751H868V900.748H868.5V896.745H868V892.742H868.5V888.738H868V884.735H868.5V880.732H868V876.729H868.5V872.726H868V868.723H868.5V864.72H868V860.717H868.5V856.713H868V852.71H868.5V848.707H868V844.704H868.5V840.701H868V836.698H868.5V832.695H868V828.692H868.5V824.689H868V820.685H868.5V816.682H868V812.679H868.5V808.676H868V804.673H868.5V800.67H868V796.667H868.5V792.664H868V788.661H868.5V784.657H868V780.654H868.5V776.651H868V772.648H868.5V768.645H868V764.642H868.5V760.639H868V756.636H868.5V752.633H868V748.629H868.5V744.626H868V740.623H868.5V736.62H868V732.617H868.5V728.614H868V724.611H868.5V720.608H868V716.604H868.5V712.601H868V708.598H868.5V704.595H868V700.592H868.5V696.589H868V692.586H868.5V688.583H868V684.58H868.5V680.576H868V676.573H868.5V672.57H868V668.567H868.5V664.564H868V660.561H868.5V656.558H868V652.555H868.5V648.552H868V644.548H868.5V640.545H868V636.542H868.5V632.539H868V628.536H868.5V624.533H868V620.53H868.5V616.527H868V612.524H868.5V608.52H868V604.517H868.5V600.514H868V596.511H868.5V592.508H868V588.505H868.5V584.502H868V580.499H868.5V576.496H868V572.492H868.5V568.489H868V564.486H868.5V560.483H868V556.48H868.5V552.477H868V548.474H868.5V544.471H868V540.468H868.5V536.464H868V532.461H868.5V528.458H868V524.455H868.5V520.452H868V516.449H868.5V512.446H868V508.443H868.5V504.44H868V500.436H868.5V496.433H868V492.43H868.5V488.427H868V484.424H868.5V480.421H868V476.418H868.5V472.415H868V468.411H868.5V464.408H868V460.405H868.5V456.402H868V452.399H868.5V448.396H868V444.393H868.5V440.39H868V436.387H868.5V432.383H868V428.38H868.5V424.377H868V420.374H868.5V416.371H868V412.368H868.5V408.365H868V404.362H868.5V400.359H868V396.355H868.5V392.352H868V388.349H868.5V384.346H868V380.343H868.5V376.34H868V372.337H868.5V368.334H868V364.331H868.5V360.327H868V356.324H868.5V352.321H868V348.318H868.5V344.315H868V340.312H868.5V336.309H868V332.306H868.5V328.303H868V324.299H868.5V320.296H868V316.293H868.5V312.29H868V308.287H868.5V304.284H868V300.281H868.5V296.278H868V292.275H868.5V288.271H868V284.268H868.5V280.265H868V276.262H868.5V272.259H868V268.256H868.5V264.253H868V260.25H868.5V256.247H868V252.243H868.5V248.24H868V244.237H868.5V240.234H868V236.231H868.5V232.228H868V228.225H868.5V224.222H868V220.219H868.5V216.215H868V212.212H868.5V208.209H868V204.206H868.5V200.203H868V196.2H868.5V192.197H868V188.194H868.5V184.191H868V180.187H868.5V176.184H868V172.181H868.5V168.178H868V164.175H868.5V160.172H868V156.169H868.5V152.166H868V148.163H868.5V144.159H868V140.156H868.5V136.153H868V132.15H868.5V128.147H868V124.144H868.5V120.141H868V116.138H868.5V112.135H868V108.131H868.5V104.128H868V100.125H868.5V96.1222H868V92.1191H868.5V88.1159H868V84.1128H868.5V80.1097H868V76.1066H868.5V72.1035H868V68.1004H868.5V64.0973H868V60.0942H868.5V56.0911H868V52.088H868.5V50.5864H870V50.0864H874V50.5864H878V50.0864H882V50.5864H886V50.0864H890V50.5864H894V50.0864H898V50.5864H902V50.0864H906V50.5864H910V50.0864H914V50.5864H918V50.0864H922V50.5864H926V50.0864H930V50.5864H934V50.0864H938V50.5864H942V50.0864H946V50.5864H950V50.0864H954V50.5864H958V50.0864H962V50.5864H966V50.0864H970V50.5864H974V50.0864H978V50.5864H982V50.0864H986V50.5864H990V50.0864H994V50.5864H998V50.0864H1002V50.5864H1006V50.0864H1010V50.5864H1014V50.0864H1018V50.5864H1022V50.0864H1026V50.5864H1030V50.0864H1034V50.5864H1038V50.0864H1042V50.5864H1046V50.0864H1050V50.5864H1054V50.0864H1058V50.5864H1062V50.0864H1066V50.5864H1070V50.0864H1074V50.5864H1078V50.0864H1082V50.5864H1086V50.0864H1090V50.5864H1094V50.0864H1098V50.5864H1102V50.0864H1106V50.5864H1110V50.0864H1114V50.5864H1118V50.0864H1122V50.5864H1126V50.0864H1130V50.5864H1134V50.0864H1138V50.5864H1142V50.0864H1146V50.5864H1150V50.0864H1154V50.5864H1158V50.0864H1162V50.5864H1166V50.0864H1170V50.5864H1174V50.0864H1178V50.5864H1182V50.0864H1186V50.5864H1190V50.0864H1194V50.5864H1198V50.0864H1202V50.5864H1206V50.0864H1210V50.5864H1214V50.0864H1218V50.5864H1222V50.0864H1226V50.5864H1230V50.0864H1234V50.5864H1238V50.0864H1242V50.5864H1246V50.0864H1250V50.5864H1254V50.0864H1258V50.5864H1262V50.0864H1266V50.5864H1267.5V52.0932H1268V56.1051H1267.5V60.117H1268V64.129H1267.5V68.141H1268V72.153H1267.5V76.1649H1268V80.1769H1267.5V84.1889H1268V88.2008H1267.5V92.2127H1268V96.2247H1267.5V100.237H1268V104.249H1267.5V108.261H1268V112.273H1267.5V116.285H1268V120.296H1267.5V124.308H1268V128.32H1267.5V132.332H1268V136.344H1267.5V140.356H1268V144.368H1267.5V148.38H1268V152.392H1267.5V156.404H1268V160.416H1267.5V164.428H1268V168.44H1267.5V172.452H1268V176.464H1267.5V180.476H1268V184.488H1267.5V188.5H1268V192.512H1267.5V196.524H1268V200.536H1267.5V204.548H1268V208.56H1267.5V212.572H1268V216.584H1267.5V220.596H1268V224.608H1267.5V228.62H1268V232.633H1267.5V236.645H1268V240.657H1267.5V244.669H1268V248.681H1267.5V252.693H1268V256.705H1267.5V260.717H1268V264.729H1267.5V268.741H1268V272.753H1267.5V276.765H1268V280.777H1267.5V284.789H1268V288.801H1267.5V292.813H1268V296.825H1267.5V300.837H1268V304.849H1267.5V308.861H1268V312.873H1267.5V316.885H1268V320.897H1267.5V324.909H1268V328.921H1267.5V332.933H1268V336.945H1267.5V340.957H1268V344.969H1267.5V348.981H1268V352.993H1267.5V357.005H1268V361.017H1267.5V365.029H1268V369.041H1267.5V373.053H1268V377.065H1267.5V381.077H1268V385.089H1267.5V389.101H1268V393.113H1267.5V397.126H1268V401.137H1267.5V405.15H1268V409.162H1267.5V413.174H1268V417.186H1267.5V421.198H1268V425.21H1267.5V429.222H1268V433.234H1267.5V437.246H1268V441.258H1267.5V445.27H1268V449.282H1267.5V453.294H1268V457.306H1267.5V461.318H1268V465.33H1267.5V469.342H1268V473.354H1267.5V477.366H1268V481.378H1267.5V485.39H1268V489.402H1267.5V493.414H1268V497.426H1267.5V501.438H1268V505.45H1267.5V509.462H1268V513.474H1267.5V517.486H1268V521.498H1267.5V525.51H1268V529.522H1267.5V533.534H1268V537.546H1267.5V541.558H1268V545.57H1267.5V549.582H1268V553.594H1267.5V557.606H1268V561.618H1267.5V565.63H1268V569.643H1267.5V573.655H1268V577.667H1267.5V581.679H1268V585.691H1267.5V589.703H1268V593.715H1267.5V597.727H1268V601.739H1267.5V605.751H1268V609.763H1267.5V613.775H1268V617.787H1267.5V621.799H1268V625.811H1267.5V629.823H1268V633.835H1267.5V637.847H1268V641.859H1267.5V645.871H1268V649.883H1267.5V653.895H1268V657.907H1267.5V661.919H1268V665.931H1267.5V669.943H1268V673.955H1267.5V677.967H1268V681.979H1267.5V685.991H1268V690.003H1267.5V694.015H1268V698.027H1267.5V702.039H1268V706.051H1267.5V710.063H1268V714.075H1267.5V718.087H1268V722.099H1267.5V726.111H1268V730.123H1267.5V734.135H1268V738.148H1267.5V742.159H1268V746.172H1267.5V750.184H1268V754.196H1267.5V758.208H1268V762.22H1267.5V766.232H1268V770.244H1267.5V774.256H1268V778.268H1267.5V782.28H1268V786.292H1267.5V790.304H1268V794.316H1267.5V798.328H1268V802.34H1267.5V806.352H1268V810.364H1267.5V814.376H1268V818.388H1267.5V822.4H1268V826.412H1267.5V830.424H1268V834.436H1267.5V838.448H1268V842.46H1267.5V846.472H1268V850.484H1267.5V854.496H1268V858.508H1267.5V862.52H1268V866.532H1267.5V870.544H1268V874.556H1267.5V878.568H1268V882.58H1267.5V886.592H1268V890.604H1267.5V894.616H1268V898.628H1267.5V902.641H1268V906.652H1267.5V910.664H1268V914.677H1267.5V918.689H1268V922.701H1267.5V926.713H1268V930.725H1267.5V934.737H1268V938.749H1267.5V942.761H1268V946.773H1267.5V950.785H1268V954.797H1267.5V958.809H1268V962.821H1267.5V966.833H1268V970.845H1267.5V974.857H1268V978.869H1267.5V982.881H1268V986.893H1267.5V990.905H1268V994.917H1267.5V998.929H1268V1002.94H1267.5V1006.95H1268V1010.97H1267.5V1014.98H1268V1018.99H1267.5V1023H1268V1027.01H1267.5V1031.03H1268V1035.04H1267.5V1039.05H1268V1043.06H1267.5V1047.07H1268V1051.09H1267.5V1055.1H1268V1059.11H1267.5V1063.12H1268V1067.13H1267.5V1071.15H1268V1075.16H1267.5V1079.17H1268V1083.18H1267.5V1087.19H1268V1091.21H1267.5V1095.22H1268V1099.23H1267.5V1103.24H1268V1107.25H1267.5V1111.27H1268V1115.28H1267.5V1119.29H1268V1123.3H1267.5V1127.31H1268V1131.33H1267.5V1135.34H1268V1139.35H1267.5V1143.36H1268V1147.37H1267.5V1151.39H1268V1155.4H1267.5V1159.41H1268V1163.42H1267.5V1167.43H1268V1171.45H1267.5V1175.46H1268V1179.47H1267.5V1183.48H1268V1187.49H1267.5V1189.04L1265.95 1189.19L1266 1189.69Z" stroke="#2A282E" stroke-dasharray="4 4"/>
<path d="M474 56.0687V52.0805H474.5V50.5819L476.019 50.5681L476.015 50.0681L480.046 50.0315L480.05 50.5315L484.081 50.4949L484.076 49.9949L488.107 49.9583L488.111 50.4583L492.142 50.4217L492.137 49.9217L496.168 49.8851L496.173 50.3851L500.203 50.3485L500.199 49.8486L504.229 49.812L504.234 50.3119L508.264 50.2753L508.26 49.7754L512.291 49.7388L512.295 50.2387L516.326 50.2021L516.321 49.7022L520.352 49.6656L520.356 50.1656L524.387 50.129L524.382 49.629L528.413 49.5924L528.418 50.0924L532.448 50.0558L532.444 49.5558L536.474 49.5192L536.479 50.0192L540.509 49.9826L540.505 49.4826L544.536 49.446L544.54 49.946L548.571 49.9094L548.566 49.4094L552.597 49.3728L552.601 49.8728L556.632 49.8362L556.627 49.3362L560.658 49.2996L560.663 49.7996L564.693 49.763L564.689 49.263L568.719 49.2264L568.724 49.7264L572.754 49.6898L572.75 49.1898L576.781 49.1532L576.785 49.6532L580.816 49.6166L580.811 49.1166L584.842 49.08L584.846 49.58L588.877 49.5434L588.872 49.0434L592.903 49.0068L592.908 49.5068L596.938 49.4702L596.934 48.9702L600.964 48.9336L600.969 49.4336L604.999 49.397L604.995 48.897L609.026 48.8605L609.03 49.3604L613.061 49.3238L613.056 48.8239L617.087 48.7873L617.091 49.2872L621.122 49.2506L621.117 48.7507L625.148 48.7141L625.153 49.214L629.183 49.1775L629.179 48.6775L633.209 48.6409L633.214 49.1409L637.244 49.1043L637.24 48.6043L641.27 48.5677L641.275 49.0677L645.306 49.0311L645.301 48.5311L649.332 48.4945L649.336 48.9945L653.367 48.9579L653.362 48.4579L657.393 48.4213L657.397 48.9213L661.428 48.8847L661.424 48.3847L665.454 48.3481L665.459 48.8481L669.489 48.8115L669.485 48.3115L673.515 48.2749L673.52 48.7749L677.551 48.7383L677.546 48.2383L681.577 48.2017L681.581 48.7017L685.612 48.6651L685.607 48.1651L689.638 48.1285L689.642 48.6285L693.673 48.5919L693.668 48.0919L697.699 48.0553L697.704 48.5553L701.734 48.5187L701.73 48.0187L705.76 47.9821L705.765 48.4821L709.795 48.4455L709.791 47.9455L713.821 47.909L713.826 48.4089L717.857 48.3723L717.852 47.8724L721.883 47.8358L721.887 48.3357L725.918 48.2991L725.913 47.7992L729.944 47.7626L729.948 48.2625L733.979 48.226L733.975 47.726L738.005 47.6894L738.01 48.1894L742.04 48.1528L742.036 47.6528L746.066 47.6162L746.071 48.1162L750.102 48.0796L750.097 47.5796L754.128 47.543L754.132 48.043L758.163 48.0064L758.158 47.5064L762.189 47.4698L762.193 47.9698L766.224 47.9332L766.219 47.4332L770.25 47.3966L770.255 47.8966L774.285 47.86L774.281 47.36L778.311 47.3234L778.316 47.8234L782.346 47.7868L782.342 47.2868L786.372 47.2502L786.377 47.7502L790.408 47.7136L790.403 47.2136L794.434 47.177L794.438 47.677L798.469 47.6404L798.464 47.1404L802.495 47.1038L802.499 47.6038L806.53 47.5672L806.526 47.0672L810.556 47.0306L810.561 47.5306L814.591 47.494L814.587 46.994L818.617 46.9575L818.622 47.4574L822.652 47.4208L822.648 46.9209L826.679 46.8843L826.683 47.3842L830.714 47.3476L830.709 46.8477L834.74 46.8111L834.744 47.311L838.775 47.2745L838.77 46.7745L842.801 46.7379L842.806 47.2379L846.836 47.2013L846.832 46.7013L850.862 46.6647L850.867 47.1647L854.897 47.1281L854.893 46.6281L858.923 46.5915L858.928 47.0915L862.959 47.0549L862.954 46.5549L866.985 46.5183L866.989 47.0183L868.5 47.0046V48.4956H869V52.4834H868.5V56.4712H869V60.459H868.5V64.4468H869V68.4346H868.5V72.4224H869V76.4102H868.5V80.3979H869V84.3857H868.5V88.3735H869V92.3613H868.5V96.3491H869V100.337H868.5V104.325H869V108.313H868.5V112.3H869V116.288H868.5V120.276H869V124.264H868.5V128.251H869V132.239H868.5V136.227H869V140.215H868.5V144.203H869V148.19H868.5V152.178H869V156.166H868.5V160.154H869V164.142H868.5V168.129H869V172.117H868.5V176.105H869V180.093H868.5V184.081H869V188.068H868.5V192.056H869V196.044H868.5V200.032H869V204.02H868.5V208.007H869V211.995H868.5V215.983H869V219.971H868.5V223.959H869V227.946H868.5V231.934H869V235.922H868.5V239.91H869V243.897H868.5V247.885H869V251.873H868.5V255.861H869V259.849H868.5V263.836H869V267.824H868.5V271.812H869V275.8H868.5V279.788H869V283.775H868.5V287.763H869V291.751H868.5V295.739H869V299.727H868.5V303.714H869V307.702H868.5V311.69H869V315.678H868.5V319.666H869V323.653H868.5V327.641H869V331.629H868.5V335.617H869V339.605H868.5V343.592H869V347.58H868.5V351.568H869V355.556H868.5V359.543H869V363.531H868.5V367.519H869V371.507H868.5V375.495H869V379.482H868.5V383.47H869V387.458H868.5V391.446H869V395.434H868.5V399.421H869V403.409H868.5V407.397H869V411.385H868.5V415.373H869V419.36H868.5V423.348H869V427.336H868.5V431.324H869V435.312H868.5V439.299H869V443.287H868.5V447.275H869V451.263H868.5V455.251H869V459.238H868.5V463.226H869V467.214H868.5V471.202H869V475.189H868.5V479.177H869V483.165H868.5V487.153H869V491.141H868.5V495.128H869V499.116H868.5V503.104H869V507.092H868.5V511.08H869V515.067H868.5V519.055H869V523.043H868.5V527.031H869V531.019H868.5V535.006H869V538.994H868.5V542.982H869V546.97H868.5V550.958H869V554.945H868.5V558.933H869V562.921H868.5V566.909H869V570.896H868.5V574.884H869V578.872H868.5V582.86H869V586.848H868.5V590.835H869V594.823H868.5V598.811H869V602.799H868.5V606.787H869V610.774H868.5V614.762H869V618.75H868.5V622.738H869V626.726H868.5V630.713H869V634.701H868.5V638.689H869V642.677H868.5V646.665H869V650.652H868.5V654.64H869V658.628H868.5V662.616H869V666.604H868.5V670.591H869V674.579H868.5V678.567H869V682.555H868.5V686.542H869V690.53H868.5V694.518H869V698.506H868.5V702.494H869V706.481H868.5V710.469H869V714.457H868.5V718.445H869V722.433H868.5V726.42H869V730.408H868.5V734.396H869V738.384H868.5V742.372H869V746.359H868.5V750.347H869V754.335H868.5V758.323H869V762.311H868.5V766.298H869V770.286H868.5V774.274H869V778.262H868.5V782.25H869V786.237H868.5V790.225H869V794.213H868.5V798.201H869V802.188H868.5V806.176H869V810.164H868.5V814.152H869V818.14H868.5V822.127H869V826.115H868.5V830.103H869V834.091H868.5V838.079H869V842.066H868.5V846.054H869V850.042H868.5V854.03H869V858.018H868.5V862.005H869V865.993H868.5V869.981H869V873.969H868.5V877.957H869V881.944H868.5V885.932H869V889.92H868.5V893.908H869V897.896H868.5V901.883H869V905.871H868.5V909.859H869V913.847H868.5V917.834H869V921.822H868.5V925.81H869V929.798H868.5V933.786H869V937.773H868.5V941.761H869V945.749H868.5V949.737H869V953.725H868.5V957.712H869V961.7H868.5V965.688H869V969.676H868.5V973.664H869V977.651H868.5V981.639H869V985.627H868.5V989.615H869V993.603H868.5V997.59H869V1001.58H868.5V1005.57H869V1009.55H868.5V1013.54H869V1017.53H868.5V1021.52H869V1025.51H868.5V1029.49H869V1033.48H868.5V1037.47H869V1041.46H868.5V1045.44H869V1049.43H868.5V1053.42H869V1057.41H868.5V1061.4H869V1065.38H868.5V1069.37H869V1073.36H868.5V1077.35H869V1081.33H868.5V1085.32H869V1089.31H868.5V1093.3H869V1097.29H868.5V1101.27H869V1105.26H868.5V1109.25H869V1113.24H868.5V1117.22H869V1121.21H868.5V1125.2H869V1129.19H868.5V1133.18H869V1137.16H868.5V1141.15H869V1145.14H868.5V1149.13H869V1153.11H868.5V1157.1H869V1161.09H868.5V1165.08H869V1169.07H868.5V1173.05H869V1177.04H868.5V1181.03H869V1185.02H868.5V1189.01H869V1192.99H868.5V1196.98H869V1200.97H868.5V1204.96H869V1208.94H868.5V1212.93H869V1216.92H868.5V1218.47L866.97 1218.63L867.025 1219.13L863.075 1219.57L863.02 1219.07L859.07 1219.51L859.125 1220L855.175 1220.44L855.12 1219.94L851.17 1220.38L851.225 1220.88L847.275 1221.31L847.22 1220.81L843.27 1221.25L843.325 1221.75L839.375 1222.18L839.32 1221.69L835.37 1222.12L835.425 1222.62L831.475 1223.05L831.42 1222.56L827.47 1222.99L827.525 1223.49L823.575 1223.93L823.52 1223.43L819.57 1223.86L819.625 1224.36L815.675 1224.8L815.62 1224.3L811.67 1224.74L811.725 1225.23L807.775 1225.67L807.72 1225.17L803.77 1225.61L803.825 1226.11L799.875 1226.54L799.82 1226.04L795.87 1226.48L795.925 1226.98L791.975 1227.41L791.92 1226.92L787.97 1227.35L788.025 1227.85L784.075 1228.28L784.02 1227.79L780.07 1228.22L780.125 1228.72L776.175 1229.16L776.12 1228.66L772.17 1229.1L772.225 1229.59L768.275 1230.03L768.22 1229.53L764.27 1229.97L764.325 1230.46L760.375 1230.9L760.32 1230.4L756.37 1230.84L756.425 1231.34L752.475 1231.77L752.42 1231.27L748.47 1231.71L748.525 1232.21L744.575 1232.64L744.52 1232.15L740.57 1232.58L740.625 1233.08L736.675 1233.52L736.62 1233.02L732.67 1233.45L732.725 1233.95L728.775 1234.39L728.72 1233.89L724.77 1234.33L724.825 1234.82L720.875 1235.26L720.82 1234.76L716.87 1235.2L716.925 1235.69L712.975 1236.13L712.92 1235.63L708.97 1236.07L709.025 1236.57L705.075 1237L705.02 1236.51L701.07 1236.94L701.125 1237.44L697.175 1237.87L697.12 1237.38L693.17 1237.81L693.225 1238.31L689.275 1238.75L689.22 1238.25L685.27 1238.68L685.325 1239.18L681.375 1239.62L681.32 1239.12L677.37 1239.56L677.425 1240.05L673.475 1240.49L673.42 1239.99L669.47 1240.43L669.525 1240.92L665.575 1241.36L665.52 1240.86L661.57 1241.3L661.625 1241.8L657.675 1242.23L657.62 1241.74L653.67 1242.17L653.725 1242.67L649.775 1243.1L649.72 1242.61L645.77 1243.04L645.825 1243.54L641.875 1243.98L641.82 1243.48L637.87 1243.91L637.925 1244.41L633.975 1244.85L633.92 1244.35L629.97 1244.79L630.025 1245.28L626.075 1245.72L626.02 1245.22L622.07 1245.66L622.125 1246.16L618.175 1246.59L618.12 1246.09L614.17 1246.53L614.225 1247.03L610.275 1247.46L610.22 1246.97L606.27 1247.4L606.325 1247.9L602.375 1248.33L602.32 1247.84L598.37 1248.27L598.425 1248.77L594.475 1249.21L594.42 1248.71L590.47 1249.15L590.525 1249.64L586.575 1250.08L586.52 1249.58L582.57 1250.02L582.625 1250.51L578.675 1250.95L578.62 1250.45L574.67 1250.89L574.725 1251.39L570.775 1251.82L570.72 1251.32L566.77 1251.76L566.825 1252.26L562.875 1252.69L562.82 1252.2L558.87 1252.63L558.925 1253.13L554.975 1253.56L554.92 1253.07L550.97 1253.5L551.025 1254L547.075 1254.44L547.02 1253.94L543.07 1254.38L543.125 1254.87L539.175 1255.31L539.12 1254.81L535.17 1255.25L535.225 1255.74L531.275 1256.18L531.22 1255.68L527.27 1256.12L527.325 1256.62L523.375 1257.05L523.32 1256.55L519.37 1256.99L519.425 1257.49L515.475 1257.92L515.42 1257.43L511.47 1257.86L511.525 1258.36L507.575 1258.8L507.52 1258.3L503.57 1258.73L503.625 1259.23L499.675 1259.67L499.62 1259.17L495.67 1259.61L495.725 1260.1L491.775 1260.54L491.72 1260.04L487.77 1260.48L487.825 1260.97L483.875 1261.41L483.82 1260.91L479.87 1261.35L479.925 1261.85L475.975 1262.28L475.92 1261.79L474.5 1261.94V1260.51H474V1256.52H474.5V1252.53H474V1248.54H474.5V1244.55H474V1240.56H474.5V1236.58H474V1232.59H474.5V1228.6H474V1224.61H474.5V1220.62H474V1216.64H474.5V1212.65H474V1208.66H474.5V1204.67H474V1200.68H474.5V1196.69H474V1192.71H474.5V1188.72H474V1184.73H474.5V1180.74H474V1176.75H474.5V1172.77H474V1168.78H474.5V1164.79H474V1160.8H474.5V1156.81H474V1152.83H474.5V1148.84H474V1144.85H474.5V1140.86H474V1136.87H474.5V1132.88H474V1128.9H474.5V1124.91H474V1120.92H474.5V1116.93H474V1112.94H474.5V1108.96H474V1104.97H474.5V1100.98H474V1096.99H474.5V1093H474V1089.01H474.5V1085.03H474V1081.04H474.5V1077.05H474V1073.06H474.5V1069.07H474V1065.09H474.5V1061.1H474V1057.11H474.5V1053.12H474V1049.13H474.5V1045.14H474V1041.16H474.5V1037.17H474V1033.18H474.5V1029.19H474V1025.2H474.5V1021.22H474V1017.23H474.5V1013.24H474V1009.25H474.5V1005.26H474V1001.27H474.5V997.286H474V993.298H474.5V989.309H474V985.321H474.5V981.333H474V977.345H474.5V973.356H474V969.368H474.5V965.38H474V961.392H474.5V957.404H474V953.415H474.5V949.427H474V945.439H474.5V941.451H474V937.462H474.5V933.474H474V929.486H474.5V925.498H474V921.51H474.5V917.521H474V913.533H474.5V909.545H474V905.557H474.5V901.568H474V897.58H474.5V893.592H474V889.604H474.5V885.616H474V881.627H474.5V877.639H474V873.651H474.5V869.663H474V865.674H474.5V861.686H474V857.698H474.5V853.71H474V849.722H474.5V845.733H474V841.745H474.5V837.757H474V833.769H474.5V829.781H474V825.792H474.5V821.804H474V817.816H474.5V813.828H474V809.839H474.5V805.851H474V801.863H474.5V797.875H474V793.887H474.5V789.898H474V785.91H474.5V781.922H474V777.934H474.5V773.945H474V769.957H474.5V765.969H474V761.981H474.5V757.993H474V754.004H474.5V750.016H474V746.028H474.5V742.04H474V738.052H474.5V734.063H474V730.075H474.5V726.087H474V722.099H474.5V718.11H474V714.122H474.5V710.134H474V706.146H474.5V702.157H474V698.169H474.5V694.181H474V690.193H474.5V686.205H474V682.216H474.5V678.228H474V674.24H474.5V670.252H474V666.263H474.5V662.275H474V658.287H474.5V654.299H474V650.311H474.5V646.322H474V642.334H474.5V638.346H474V634.358H474.5V630.37H474V626.381H474.5V622.393H474V618.405H474.5V614.417H474V610.428H474.5V606.44H474V602.452H474.5V598.464H474V594.476H474.5V590.487H474V586.499H474.5V582.511H474V578.523H474.5V574.534H474V570.546H474.5V566.558H474V562.57H474.5V558.582H474V554.593H474.5V550.605H474V546.617H474.5V542.629H474V538.641H474.5V534.652H474V530.664H474.5V526.676H474V522.688H474.5V518.7H474V514.711H474.5V510.723H474V506.735H474.5V502.747H474V498.759H474.5V494.771H474V490.782H474.5V486.794H474V482.806H474.5V478.818H474V474.83H474.5V470.841H474V466.853H474.5V462.865H474V458.877H474.5V454.889H474V450.9H474.5V446.912H474V442.924H474.5V438.936H474V434.948H474.5V430.959H474V426.971H474.5V422.983H474V418.995H474.5V415.007H474V411.019H474.5V407.03H474V403.042H474.5V399.054H474V395.066H474.5V391.078H474V387.089H474.5V383.101H474V379.113H474.5V375.125H474V371.137H474.5V367.148H474V363.16H474.5V359.172H474V355.184H474.5V351.196H474V347.207H474.5V343.219H474V339.231H474.5V335.243H474V331.255H474.5V327.267H474V323.278H474.5V319.29H474V315.302H474.5V311.314H474V307.326H474.5V303.337H474V299.349H474.5V295.361H474V291.373H474.5V287.385H474V283.396H474.5V279.408H474V275.42H474.5V271.432H474V267.444H474.5V263.455H474V259.467H474.5V255.479H474V251.491H474.5V247.503H474V243.514H474.5V239.526H474V235.538H474.5V231.55H474V227.561H474.5V223.573H474V219.585H474.5V215.597H474V211.609H474.5V207.62H474V203.632H474.5V199.644H474V195.656H474.5V191.668H474V187.679H474.5V183.691H474V179.703H474.5V175.715H474V171.727H474.5V167.738H474V163.75H474.5V159.762H474V155.774H474.5V151.786H474V147.797H474.5V143.809H474V139.821H474.5V135.833H474V131.845H474.5V127.856H474V123.868H474.5V119.88H474V115.892H474.5V111.904H474V107.915H474.5V103.927H474V99.939H474.5V95.9508H474V91.9626H474.5V87.9743H474V83.9861H474.5V79.9979H474V76.0097H474.5V72.0215H474V68.0333H474.5V64.0451H474V60.0569H474.5V56.0687H474Z" stroke="#2A282E" stroke-dasharray="4 4"/>
<path d="M1456 56.0967V52.0898H1455.5V52.0895H1455V56.0963H1455.5V56.0967H1456ZM1455.5 60.1031H1455V64.11H1455.5V64.1103H1456V60.1035H1455.5V60.1031ZM1455.5 68.1168H1455V72.1236H1455.5V72.124H1456V68.1172H1455.5V68.1168ZM1455.5 76.1305H1455V80.1373H1455.5V80.1377H1456V76.1308H1455.5V76.1305ZM1455.5 84.1442H1455V88.151H1455.5V88.1514H1456V84.1445H1455.5V84.1442ZM1455.5 92.1578H1455V96.1647H1455.5V96.165H1456V92.1582H1455.5V92.1578ZM1455.5 100.172H1455V104.178H1455.5V104.179H1456V100.172H1455.5V100.172ZM1455.5 108.185H1455V112.192H1455.5V112.192H1456V108.186H1455.5V108.185ZM1455.5 116.199H1455V120.206H1455.5V120.206H1456V116.199H1455.5V116.199ZM1455.5 124.213H1455V128.219H1455.5V128.22H1456V124.213H1455.5V124.213ZM1455.5 132.226H1455V136.233H1455.5V136.233H1456V132.227H1455.5V132.226ZM1455.5 140.24H1455V144.247H1455.5V144.247H1456V140.24H1455.5V140.24ZM1455.5 148.254H1455V152.26H1455.5V152.261H1456V148.254H1455.5V148.254ZM1455.5 156.267H1455V160.274H1455.5V160.274H1456V156.268H1455.5V156.267ZM1455.5 164.281H1455V168.288H1455.5V168.288H1456V164.281H1455.5V164.281ZM1455.5 172.295H1455V176.301H1455.5V176.302H1456V172.295H1455.5V172.295ZM1455.5 180.308H1455V184.315H1455.5V184.315H1456V180.309H1455.5V180.308ZM1455.5 188.322H1455V192.329H1455.5V192.329H1456V188.322H1455.5V188.322ZM1455.5 196.336H1455V200.342H1455.5V200.343H1456V196.336H1455.5V196.336ZM1455.5 204.349H1455V208.356H1455.5V208.356H1456V204.35H1455.5V204.349ZM1455.5 212.363H1455V216.37H1455.5V216.37H1456V212.363H1455.5V212.363ZM1455.5 220.376H1455V224.383H1455.5V224.384H1456V220.377H1455.5V220.376ZM1455.5 228.39H1455V232.397H1455.5V232.397H1456V228.391H1455.5V228.39ZM1455.5 236.404H1455V240.411H1455.5V240.411H1456V236.404H1455.5V236.404ZM1455.5 244.418H1455V248.424H1455.5V248.425H1456V244.418H1455.5V244.418ZM1455.5 252.431H1455V256.438H1455.5V256.438H1456V252.432H1455.5V252.431ZM1455.5 260.445H1455V264.452H1455.5V264.452H1456V260.445H1455.5V260.445ZM1455.5 268.459H1455V272.465H1455.5V272.466H1456V268.459H1455.5V268.459ZM1455.5 276.472H1455V280.479H1455.5V280.479H1456V276.473H1455.5V276.472ZM1455.5 284.486H1455V288.493H1455.5V288.493H1456V284.486H1455.5V284.486ZM1455.5 292.5H1455V296.506H1455.5V296.507H1456V292.5H1455.5V292.5ZM1455.5 300.513H1455V304.52H1455.5V304.52H1456V300.514H1455.5V300.513ZM1455.5 308.527H1455V312.534H1455.5V312.534H1456V308.527H1455.5V308.527ZM1455.5 316.541H1455V320.547H1455.5V320.548H1456V316.541H1455.5V316.541ZM1455.5 324.554H1455V328.561H1455.5V328.561H1456V324.555H1455.5V324.554ZM1455.5 332.568H1455V336.575H1455.5V336.575H1456V332.568H1455.5V332.568ZM1455.5 340.582H1455V344.588H1455.5V344.589H1456V340.582H1455.5V340.582ZM1455.5 348.595H1455V352.602H1455.5V352.603H1456V348.596H1455.5V348.595ZM1455.5 356.609H1455V360.616H1455.5V360.616H1456V356.609H1455.5V356.609ZM1455.5 364.623H1455V368.629H1455.5V368.63H1456V364.623H1455.5V364.623ZM1455.5 372.636H1455V376.643H1455.5V376.644H1456V372.637H1455.5V372.636ZM1455.5 380.65H1455V384.657H1455.5V384.657H1456V380.65H1455.5V380.65ZM1455.5 388.664H1455V392.671H1455.5V392.671H1456V388.664H1455.5V388.664ZM1455.5 396.677H1455V400.684H1455.5V400.685H1456V396.678H1455.5V396.677ZM1455.5 404.691H1455V408.698H1455.5V408.698H1456V404.691H1455.5V404.691ZM1455.5 412.705H1455V416.712H1455.5V416.712H1456V412.705H1455.5V412.705ZM1455.5 420.718H1455V424.725H1455.5V424.726H1456V420.719H1455.5V420.718ZM1455.5 428.732H1455V432.739H1455.5V432.739H1456V428.732H1455.5V428.732ZM1455.5 436.746H1455V440.752H1455.5V440.753H1456V436.746H1455.5V436.746ZM1455.5 444.759H1455V448.766H1455.5V448.767H1456V444.76H1455.5V444.759ZM1455.5 452.773H1455V456.78H1455.5V456.78H1456V452.773H1455.5V452.773ZM1455.5 460.787H1455V464.793H1455.5V464.794H1456V460.787H1455.5V460.787ZM1455.5 468.8H1455V472.807H1455.5V472.808H1456V468.801H1455.5V468.8ZM1455.5 476.814H1455V480.821H1455.5V480.821H1456V476.814H1455.5V476.814ZM1455.5 484.828H1455V488.835H1455.5V488.835H1456V484.828H1455.5V484.828ZM1455.5 492.841H1455V496.848H1455.5V496.849H1456V492.842H1455.5V492.841ZM1455.5 500.855H1455V504.862H1455.5V504.862H1456V500.855H1455.5V500.855ZM1455.5 508.869H1455V512.876H1455.5V512.876H1456V508.869H1455.5V508.869ZM1455.5 516.882H1455V520.889H1455.5V520.89H1456V516.883H1455.5V516.882ZM1455.5 524.896H1455V528.903H1455.5V528.903H1456V524.896H1455.5V524.896ZM1455.5 532.91H1455V536.917H1455.5V536.917H1456V532.91H1455.5V532.91ZM1455.5 540.923H1455V544.93H1455.5V544.931H1456V540.924H1455.5V540.923ZM1455.5 548.937H1455V552.944H1455.5V552.944H1456V548.937H1455.5V548.937ZM1455.5 556.951H1455V560.958H1455.5V560.958H1456V556.951H1455.5V556.951ZM1455.5 564.965L1455 564.964V568.971L1455.5 568.972H1456V564.965H1455.5ZM1455.5 572.978L1455 572.978V576.985L1455.5 576.985H1456V572.978H1455.5ZM1455.5 580.992L1455 580.992V584.999L1455.5 584.999H1456V580.992H1455.5ZM1455.5 589.006L1455 589.005V593.012L1455.5 593.013H1456V589.006H1455.5ZM1455.5 597.019L1455 597.019V601.026L1455.5 601.026H1456V597.019H1455.5ZM1455.5 605.033L1455 605.033V609.04L1455.5 609.04H1456V605.033H1455.5ZM1455.5 613.047L1455 613.046V617.053L1455.5 617.054H1456V613.047H1455.5ZM1455.5 621.06L1455 621.06V625.067L1455.5 625.067H1456V621.06H1455.5ZM1455.5 629.074L1455 629.074V633.081L1455.5 633.081H1456V629.074H1455.5ZM1455.5 637.088L1455 637.087V641.094L1455.5 641.095H1456V637.088H1455.5ZM1455.5 645.102L1455 645.101V649.108L1455.5 649.108H1456V645.102H1455.5ZM1455.5 653.115L1455 653.115V657.122L1455.5 657.122H1456V653.115H1455.5ZM1455.5 661.129L1455 661.128V665.135L1455.5 665.136H1456V661.129H1455.5ZM1455.5 669.143L1455 669.142V673.149L1455.5 673.149H1456V669.143H1455.5ZM1455.5 677.156H1455V681.163L1455.5 681.163H1456V677.156H1455.5V677.156ZM1455.5 685.17L1455 685.169V689.176H1455.5V689.177H1456V685.17H1455.5ZM1455.5 693.184L1455 693.183V697.19L1455.5 697.19H1456V693.184H1455.5ZM1455.5 701.197L1455 701.197V705.204L1455.5 705.204H1456V701.197H1455.5ZM1455.5 709.211L1455 709.211V713.217L1455.5 713.218H1456V709.211H1455.5ZM1455.5 717.225L1455 717.224V721.231L1455.5 721.231H1456V717.225H1455.5ZM1455.5 725.238L1455 725.238V729.245L1455.5 729.245H1456V725.238H1455.5ZM1455.5 733.252L1455 733.252V737.258L1455.5 737.259H1456V733.252H1455.5ZM1455.5 741.266L1455 741.265V745.272L1455.5 745.272H1456V741.266H1455.5ZM1455.5 749.279L1455 749.279V753.286L1455.5 753.286H1456V749.279H1455.5ZM1455.5 757.293L1455 757.292V761.299L1455.5 761.3H1456V757.293H1455.5ZM1455.5 765.307L1455 765.306V769.313L1455.5 769.313H1456V765.307H1455.5ZM1455.5 773.32L1455 773.32V777.327L1455.5 777.327H1456V773.32H1455.5ZM1455.5 781.334L1455 781.333V785.34L1455.5 785.341H1456V781.334H1455.5ZM1455.5 789.348L1455 789.347V793.354H1455.5V793.354H1456V789.348H1455.5ZM1455.5 797.361L1455 797.361V801.368L1455.5 801.368H1456V797.361H1455.5ZM1455.5 805.375L1455 805.375V809.381L1455.5 809.382H1456V805.375H1455.5ZM1455.5 813.389L1455 813.388V817.395L1455.5 817.395H1456V813.389H1455.5ZM1455.5 821.402L1455 821.402V825.409L1455.5 825.409H1456V821.402H1455.5ZM1455.5 829.416L1455 829.416V833.422L1455.5 833.423H1456V829.416H1455.5ZM1455.5 837.43L1455 837.429V841.436L1455.5 841.436H1456V837.43H1455.5ZM1455.5 845.443L1455 845.443V849.45L1455.5 849.45H1456V845.443H1455.5ZM1455.5 853.457L1455 853.457V857.463L1455.5 857.464H1456V853.457H1455.5ZM1455.5 861.471L1455 861.47V865.477L1455.5 865.477H1456V861.471H1455.5ZM1455.5 869.484L1455 869.484V873.491L1455.5 873.491H1456V869.484H1455.5ZM1455.5 877.498L1455 877.498V881.504L1455.5 881.505H1456V877.498H1455.5ZM1455.5 885.512L1455 885.511V889.518L1455.5 889.518H1456V885.512H1455.5ZM1455.5 893.525L1455 893.525V897.532L1455.5 897.532H1456V893.525H1455.5ZM1455.5 901.539L1455 901.539V905.545L1455.5 905.546H1456V901.539H1455.5ZM1455.5 909.552H1455V913.559L1455.5 913.56H1456V909.553H1455.5V909.552ZM1455.5 917.566L1455 917.566V921.573L1455.5 921.573H1456V917.566H1455.5ZM1455.5 925.58L1455 925.58V929.586L1455.5 929.587H1456V925.58H1455.5ZM1455.5 933.594L1455 933.593V937.6L1455.5 937.601H1456V933.594H1455.5ZM1455.5 941.607L1455 941.607V945.614L1455.5 945.614H1456V941.607H1455.5ZM1455.5 949.621L1455 949.621V953.627L1455.5 953.628H1456V949.621H1455.5ZM1455.5 957.635L1455 957.634V961.641L1455.5 961.642H1456V957.635H1455.5ZM1455.5 965.648L1455 965.648V969.655L1455.5 969.655H1456V965.648H1455.5ZM1455.5 973.662L1455 973.662V977.668L1455.5 977.669H1456V973.662H1455.5ZM1455.5 981.676L1455 981.675V985.682L1455.5 985.683H1456V981.676H1455.5ZM1455.5 989.689L1455 989.689V993.696L1455.5 993.696H1456V989.689H1455.5ZM1455.5 997.703L1455 997.703V1001.71L1455.5 1001.71H1456V997.703H1455.5ZM1455.5 1005.72L1455 1005.72V1009.72L1455.5 1009.72H1456V1005.72H1455.5ZM1455.5 1013.73H1455V1017.74L1455.5 1017.74H1456V1013.73H1455.5V1013.73ZM1455.5 1021.74L1455 1021.74V1025.75L1455.5 1025.75H1456V1021.74H1455.5ZM1455.5 1029.76L1455 1029.76V1033.76L1455.5 1033.76H1456V1029.76H1455.5ZM1455.5 1037.77L1455 1037.77V1041.78L1455.5 1041.78H1456V1037.77H1455.5ZM1455.5 1045.79L1455 1045.78V1049.79L1455.5 1049.79H1456V1045.79H1455.5ZM1455.5 1053.8L1455 1053.8V1057.81L1455.5 1057.81H1456V1053.8H1455.5ZM1455.5 1061.81L1455 1061.81V1065.82L1455.5 1065.82H1456V1061.81H1455.5ZM1455.5 1069.83L1455 1069.83V1073.83L1455.5 1073.83H1456V1069.83H1455.5ZM1455.5 1077.84L1455 1077.84V1081.85L1455.5 1081.85H1456V1077.84H1455.5ZM1455.5 1085.85L1455 1085.85V1089.86L1455.5 1089.86H1456V1085.85H1455.5ZM1455.5 1093.87L1455 1093.87V1097.87L1455.5 1097.87H1456V1093.87H1455.5ZM1455.5 1101.88L1455 1101.88V1105.89L1455.5 1105.89H1456V1101.88H1455.5ZM1455.5 1109.89L1455 1109.89V1113.9L1455.5 1113.9H1456V1109.89H1455.5ZM1455.5 1117.91L1455 1117.91V1121.91L1455.5 1121.91H1456V1117.91H1455.5ZM1455.5 1125.92L1455 1125.92V1129.93L1455.5 1129.93H1456V1125.92H1455.5ZM1455.5 1133.94L1455 1133.94V1137.94L1455.5 1137.94H1456V1133.94H1455.5ZM1455.5 1141.95L1455 1141.95V1145.96L1455.5 1145.96H1456V1141.95H1455.5ZM1455.5 1149.96L1455 1149.96V1153.97L1455.5 1153.97H1456V1149.96H1455.5ZM1455.5 1157.98L1455 1157.98V1161.98L1455.5 1161.98H1456V1157.98H1455.5ZM1455.5 1165.99L1455 1165.99V1170L1455.5 1170H1456V1165.99H1455.5Z" stroke="#2A282E" stroke-dasharray="4 4"/>
</g>
</svg>
