<svg width="156" height="45" viewBox="0 0 156 45" fill="none" xmlns="http://www.w3.org/2000/svg">
<path d="M6.29621 16.5239C4.8651 17.4439 4 19.0284 4 20.7298V38.5C4 39.6046 4.89543 40.5 6 40.5H128.81C130.354 40.5 131.866 40.0529 133.162 39.2128L149.72 28.4782C151.142 27.5564 152 25.9772 152 24.2827V6.5C152 5.39543 151.105 4.5 150 4.5H27.3496C25.8156 4.5 24.3139 4.94104 23.0236 5.77057L6.29621 16.5239Z" fill="#8B52FE"/>
<path d="M3.20912 14.7139C1.82816 15.6429 1 17.1981 1 18.8625V41.5C1 42.6046 1.89543 43.5 3 43.5H130.874C132.476 43.5 134.04 43.0194 135.365 42.1203L152.807 30.2877C154.179 29.3572 155 27.8075 155 26.15V3.5C155 2.39543 154.105 1.5 153 1.5H25.2918C23.701 1.5 22.1463 1.97427 20.8264 2.86222L3.20912 14.7139Z" stroke="#8B52FE" stroke-width="2"/>
</svg>
